<?xml version="1.0" encoding="utf-8"?>
<svg
  version="1.1" id="joker_hat_simple_red"
	xmlns="http://www.w3.org/2000/svg"
  xmlns:xlink="http://www.w3.org/1999/xlink" viewBox="0 0 177 155"
>
<title>joker_hat_simple_red</title>
<g>
  <path d="M26.1,143.9c0-14.4,21.8-14.4,21.8,0C47.9,158.3,26.1,158.2,26.1,143.9"/>
  <path d="M144.5,125.8c0-14.4,21.8-14.4,21.8,0C166.3,140.2,144.5,140.2,144.5,125.8"/>
  <path d="M25.2,125.7c-5.6,0-25.5-10.6-24.5-44.1c0.5-19.5,9.8-38,29-38
    c7,0,15.3,2.4,25,8.2C57.8,30,29.2,22.2,29.2,18.7c0-7.4,15.9-18.4,35.8-18.4c6.6,0,13.7,1.2,20.8,4.2c9.5,4,18.6,10.4,30,31.1
    c6.7-3.7,13.3-5.4,19.6-5.4c22.9,0,41,22.1,41,45.4c0,16.3-9.9,29.4-12,29.4c0,0,0,0,0,0c-4.4-0.1-9.3-20.1-26-24.7
    c-0.2-0.1-13.8,18.8-17.2,22.3c-4.8,4.8-11.2-11.2-33.5-11.2c-14.2,0-26.3,14.9-27.7,14.8c-4-0.3-21.6-21.6-24.5-18.7
    c-7.9,7.9-8.8,18.6-8.8,26.7c0,2.5,0.1,4.7,0.1,6.6C26.7,124.8,26.2,125.7,25.2,125.7z"/>
  <path d="M6.3,38.8C-6.2,26.3,12.7,7.3,25.2,19.9C37.7,32.3,19.1,51.3,6.3,38.8"/>
  <g fill="#FF000C">
    <path d="M30.4,143.9c0-8.6,13.1-8.7,13.1,0
      C43.5,152.5,30.4,152.5,30.4,143.9"/>
    <path d="M148.8,125.8c0-8.6,13.1-8.7,13.1,0
      C161.9,134.4,148.8,134.5,148.8,125.8"/>
    <path d="M15.7,115.5c-13.4-14.8-15.9-50.4,2.1-64c14.6-11,35.5,5.4,38,5.4
      c5.8,0,4-17.6-4-26.6c-3.7-4.4-9-8.2-17.5-12.6C42.2,4,68.1,1.3,84,8.4c21.7,9.3,27.4,32.3,30.9,32.3c1.9,0,7.5-6.2,23.8-6.2
      c22.5,0,45.5,37.1,25.6,64.3c-7.4-11.6-14.7-20.9-26.7-23.3c-2.1,0-0.5-1-18.8,22.8c-23.8-16.7-40.8-14.5-58.4,1.6
      c-1.6,1.3,0.8,2.2-10.2-7.6C47.7,90,38,80.9,35.2,81.8c-1.4,0.2-8.4,6.8-11.1,15.6c-2.1,6.8-1.9,13.3-1.9,22.8
      C19.9,119.3,17.7,117.7,15.7,115.5"/>
    <path d="M6.7,29.3c0-11.9,18.1-11.9,18.1,0C24.8,41.3,6.7,41.3,6.7,29.3"/>
  </g>
</g>
</svg>
